<svg xmlns="http://www.w3.org/2000/svg" version="1.1" xmlns:xlink="http://www.w3.org/1999/xlink" width="512" height="512" x="0" y="0" viewBox="0 0 2.709 2.709" style="enable-background:new 0 0 512 512" xml:space="preserve" fill-rule="evenodd" class=""><g><path fill="#666666" fill-rule="nonzero" d="M1.27.762a.506.506 0 0 1 .388.836l.215.216.062.061a.042.042 0 0 1-.06.06l-.061-.062-.216-.215a.506.506 0 0 1-.836-.388.506.506 0 0 1 .508-.508zm.3.209a.422.422 0 0 0-.723.299.422.422 0 0 0 .722.3.422.422 0 0 0 0-.6z" opacity="1" data-original="#666666" class=""></path></g></svg>